<svg width="36" height="36" viewBox="0 0 36 36" fill="none" xmlns="http://www.w3.org/2000/svg">
<path d="M9.425 24.8361C9.045 24.8361 8.7125 24.7064 8.4275 24.4469C8.1425 24.1875 8 23.8848 8 23.5389V12.2971C8 11.9512 8.1425 11.6486 8.4275 11.3891C8.7125 11.1297 9.045 11 9.425 11H25.575C25.955 11 26.2875 11.1297 26.5725 11.3891C26.8575 11.6486 27 11.9512 27 12.2971V23.5389C27 23.8848 26.8575 24.1875 26.5725 24.4469C26.2875 24.7064 25.955 24.8361 25.575 24.8361H9.425ZM17.5 18.3072L25.575 13.4862V12.2971L17.5 17.01L9.425 12.2971V13.4862L17.5 18.3072Z" fill="url(#paint0_linear_1083_1702)"/>
<defs>
<linearGradient id="paint0_linear_1083_1702" x1="17.5043" y1="12.8106" x2="19.4461" y2="21.7811" gradientUnits="userSpaceOnUse">
<stop stop-color="white"/>
<stop offset="1" stop-color="#F4F4F4"/>
</linearGradient>
</defs>
</svg>
