<svg width="28" height="32" viewBox="0 0 28 32" fill="none" xmlns="http://www.w3.org/2000/svg">
<path d="M15.8792 0.000133542C16.3609 0.0001335 16.8144 0.0942318 17.2395 0.282427C17.6646 0.470623 18.033 0.723963 18.3447 1.04245L27.1016 9.98897L24.7211 12.5079C24.3243 12.9132 23.878 13.2245 23.382 13.4416C22.8861 13.6588 22.3689 13.695 21.8304 13.5502L18.5147 12.7685L18.5147 26.9266C18.5147 28.1426 18.1038 29.1704 17.282 30.0101C16.4601 30.8497 15.4541 31.2695 14.2638 31.2695C13.0736 31.2695 12.0675 30.8497 11.2457 30.0101C10.4239 29.1704 10.0129 28.1426 10.0129 26.9266L10.0129 19.4566L8.9077 19.4566C8.76601 19.4566 8.63848 19.4277 8.52512 19.3698C8.41177 19.3119 8.28424 19.254 8.14254 19.1961L1.85121 16.0691C1.17106 15.7506 0.668038 15.2367 0.342135 14.5274C0.0162327 13.818 -0.0758677 13.087 0.065829 12.3342L1.59615 2.8665C1.73785 2.02685 2.1346 1.33922 2.7864 0.803584C3.43821 0.267951 4.17503 0.000134565 4.99687 0.000134493L15.8792 0.000133542ZM16.2193 2.60592L4.27422 2.60592L2.44633 13.4199L10.2255 17.372L12.5635 17.372L12.5635 26.9266C12.5635 27.4477 12.7193 27.8675 13.0311 28.186C13.3428 28.5045 13.7537 28.6637 14.2638 28.6637C14.7739 28.6637 15.1849 28.5045 15.4966 28.186C15.8083 27.8675 15.9642 27.4477 15.9642 26.9266L15.9642 9.5981L22.5106 11.0313L23.4883 10.0324L16.2193 2.60592ZM16.2193 2.60592L4.27422 2.60592L16.2193 2.60592Z" fill="white"/>
</svg>
