<svg width="30" height="30" viewBox="0 0 30 30" fill="none" xmlns="http://www.w3.org/2000/svg">
<path d="M7.8125 26.25C6.6875 26.25 5.72917 25.8542 4.9375 25.0625C4.14583 24.2708 3.75 23.3125 3.75 22.1875C3.75 21.0625 4.14583 20.1042 4.9375 19.3125C5.72917 18.5208 6.6875 18.125 7.8125 18.125H10V11.875H7.8125C6.6875 11.875 5.72917 11.4792 4.9375 10.6875C4.14583 9.89583 3.75 8.9375 3.75 7.8125C3.75 6.6875 4.14583 5.72917 4.9375 4.9375C5.72917 4.14583 6.6875 3.75 7.8125 3.75C8.9375 3.75 9.89583 4.14583 10.6875 4.9375C11.4792 5.72917 11.875 6.6875 11.875 7.8125V10H18.125V7.8125C18.125 6.6875 18.5208 5.72917 19.3125 4.9375C20.1042 4.14583 21.0625 3.75 22.1875 3.75C23.3125 3.75 24.2708 4.14583 25.0625 4.9375C25.8542 5.72917 26.25 6.6875 26.25 7.8125C26.25 8.9375 25.8542 9.89583 25.0625 10.6875C24.2708 11.4792 23.3125 11.875 22.1875 11.875H20V18.125H22.1875C23.3125 18.125 24.2708 18.5208 25.0625 19.3125C25.8542 20.1042 26.25 21.0625 26.25 22.1875C26.25 23.3125 25.8542 24.2708 25.0625 25.0625C24.2708 25.8542 23.3125 26.25 22.1875 26.25C21.0625 26.25 20.1042 25.8542 19.3125 25.0625C18.5208 24.2708 18.125 23.3125 18.125 22.1875V20H11.875V22.1875C11.875 23.3125 11.4792 24.2708 10.6875 25.0625C9.89583 25.8542 8.9375 26.25 7.8125 26.25V26.25ZM7.8125 24.375C8.41667 24.375 8.93229 24.1615 9.35938 23.7344C9.78646 23.3073 10 22.7917 10 22.1875V20H7.8125C7.20833 20 6.69271 20.2135 6.26562 20.6406C5.83854 21.0677 5.625 21.5833 5.625 22.1875C5.625 22.7917 5.83854 23.3073 6.26562 23.7344C6.69271 24.1615 7.20833 24.375 7.8125 24.375ZM22.1875 24.375C22.7917 24.375 23.3073 24.1615 23.7344 23.7344C24.1615 23.3073 24.375 22.7917 24.375 22.1875C24.375 21.5833 24.1615 21.0677 23.7344 20.6406C23.3073 20.2135 22.7917 20 22.1875 20H20V22.1875C20 22.7917 20.2135 23.3073 20.6406 23.7344C21.0677 24.1615 21.5833 24.375 22.1875 24.375ZM11.875 18.125H18.125V11.875H11.875V18.125ZM7.8125 10H10V7.8125C10 7.20833 9.78646 6.69271 9.35938 6.26562C8.93229 5.83854 8.41667 5.625 7.8125 5.625C7.20833 5.625 6.69271 5.83854 6.26562 6.26562C5.83854 6.69271 5.625 7.20833 5.625 7.8125C5.625 8.41667 5.83854 8.93229 6.26562 9.35938C6.69271 9.78646 7.20833 10 7.8125 10ZM20 10H22.1875C22.7917 10 23.3073 9.78646 23.7344 9.35938C24.1615 8.93229 24.375 8.41667 24.375 7.8125C24.375 7.20833 24.1615 6.69271 23.7344 6.26562C23.3073 5.83854 22.7917 5.625 22.1875 5.625C21.5833 5.625 21.0677 5.83854 20.6406 6.26562C20.2135 6.69271 20 7.20833 20 7.8125V10Z" fill="white"/>
</svg>
