<svg width="36" height="36" viewBox="0 0 36 36" fill="none" xmlns="http://www.w3.org/2000/svg">
<g clip-path="url(#clip0_1083_1679)">
<path d="M17.9459 30.5231C14.9677 30.5231 12.1703 29.3643 10.063 27.257C7.9557 25.1497 6.79688 22.3523 6.79688 19.374C6.79688 18.8648 7.21021 18.4514 7.71951 18.4514C8.2288 18.4514 8.64214 18.8648 8.64214 19.374C8.64214 21.8578 9.60905 24.1939 11.3657 25.9506C13.1224 27.7072 15.4585 28.6742 17.9423 28.6742C18.4515 28.6742 18.8649 29.0875 18.8649 29.5968C18.8649 30.1061 18.4515 30.5194 17.9423 30.5194L17.9459 30.5231Z" fill="white"/>
<path d="M28.3993 20.0717C27.89 20.0717 27.4767 19.6583 27.4767 19.149C27.4767 16.6653 26.5097 14.3292 24.753 12.5725C22.9964 10.8158 20.6603 9.84892 18.1765 9.84892C17.6672 9.84892 17.2539 9.43559 17.2539 8.92629C17.2539 8.417 17.6672 8.00366 18.1765 8.00366C21.1548 8.00366 23.9522 9.16249 26.0595 11.2698C28.1668 13.3771 29.3256 16.1745 29.3256 19.1527C29.3256 19.662 28.9123 20.0754 28.403 20.0754L28.3993 20.0717Z" fill="white"/>
<path d="M28.3883 20.6623C28.1521 20.6623 27.9159 20.5737 27.7351 20.3928L25.0447 17.7025C24.683 17.3408 24.683 16.7577 25.0447 16.396C25.4064 16.0343 25.9895 16.0343 26.3511 16.396L28.3883 18.4332L30.4255 16.396C30.7871 16.0343 31.3702 16.0343 31.7319 16.396C32.0936 16.7577 32.0936 17.3408 31.7319 17.7025L29.0415 20.3928C28.8607 20.5737 28.6245 20.6623 28.3883 20.6623Z" fill="white"/>
<path d="M10.3053 22.046C10.0691 22.046 9.83287 21.9575 9.65204 21.7766L7.61487 19.7395L5.5777 21.7766C5.21603 22.1383 4.63292 22.1383 4.27125 21.7766C3.90958 21.415 3.90958 20.8319 4.27125 20.4702L6.96165 17.7798C7.32332 17.4181 7.90642 17.4181 8.26809 17.7798L10.9585 20.4702C11.3202 20.8319 11.3202 21.415 10.9585 21.7766C10.7776 21.9575 10.5415 22.046 10.3053 22.046Z" fill="white"/>
<path d="M17.1665 27.4712C17.0779 27.4712 16.9894 27.4602 16.9045 27.4343C16.5133 27.3162 16.2439 26.9583 16.2439 26.5486V21.3819H13.2915C12.9519 21.3819 12.6419 21.1974 12.4795 20.8984C12.3172 20.5995 12.3319 20.2378 12.5165 19.9536L18.0522 11.4654C18.2737 11.1222 18.6981 10.9709 19.0893 11.0853C19.4805 11.2034 19.7499 11.5614 19.7499 11.971V17.1378H22.7023C23.0418 17.1378 23.3518 17.3223 23.5142 17.6212C23.6766 17.9202 23.6618 18.2818 23.4773 18.566L17.9415 27.0542C17.7681 27.3199 17.4728 27.4712 17.1702 27.4712H17.1665ZM14.9965 19.5366H17.1665C17.6758 19.5366 18.0891 19.95 18.0891 20.4593V23.4449L20.9973 18.983H18.8272C18.318 18.983 17.9046 18.5697 17.9046 18.0604V15.0748L14.9965 19.5366Z" fill="#03AEF4"/>
</g>
<defs>
<clipPath id="clip0_1083_1679">
<rect width="28" height="22.5233" fill="white" transform="translate(4 8)"/>
</clipPath>
</defs>
</svg>
