<svg width="36" height="36" viewBox="0 0 36 36" fill="none" xmlns="http://www.w3.org/2000/svg">
<path d="M24.3728 12.1714H23.1644V11.5931C23.1644 11.2651 22.901 11 22.575 11C22.2491 11 21.9857 11.2651 21.9857 11.5931V12.1714H20.1138V11.5931C20.1138 11.2651 19.8504 11 19.5245 11C19.1985 11 18.9351 11.2651 18.9351 11.5931V12.1714H17.0633V11.5931C17.0633 11.2651 16.7999 11 16.4739 11C16.1479 11 15.8845 11.2651 15.8845 11.5931V12.1714H14.0127V11.5931C14.0127 11.2651 13.7493 11 13.4233 11C13.0974 11 12.834 11.2651 12.834 11.5931V12.1714H11.6272C11.2815 12.1714 11 12.453 11 12.8026V24.3688C11 24.7167 11.2799 25 11.6272 25H24.3728C24.7185 25 25 24.7183 25 24.3688V12.8026C25 12.4547 24.7201 12.1714 24.3728 12.1714ZM23.7455 23.7375H12.2545V15.4303H23.7455V23.7375Z" fill="url(#paint0_linear_1083_1716)"/>
<defs>
<linearGradient id="paint0_linear_1083_1716" x1="18.0032" y1="12.8321" x2="20.5984" y2="21.5627" gradientUnits="userSpaceOnUse">
<stop stop-color="white"/>
<stop offset="1" stop-color="#F4F4F4"/>
</linearGradient>
</defs>
</svg>
