<svg width="36" height="36" viewBox="0 0 36 36" fill="none" xmlns="http://www.w3.org/2000/svg">
<path d="M18 17.375C16.625 17.375 15.5 16.9375 14.625 16.0625C13.75 15.1875 13.3125 14.0625 13.3125 12.6875C13.3125 11.3125 13.75 10.1875 14.625 9.3125C15.5 8.4375 16.625 8 18 8C19.375 8 20.5 8.4375 21.375 9.3125C22.25 10.1875 22.6875 11.3125 22.6875 12.6875C22.6875 14.0625 22.25 15.1875 21.375 16.0625C20.5 16.9375 19.375 17.375 18 17.375ZM8 27.4062V24.4687C8 23.6771 8.19792 23 8.59375 22.4375C8.98958 21.875 9.5 21.4479 10.125 21.1562C11.5208 20.5312 12.8594 20.0625 14.1406 19.75C15.4219 19.4375 16.7083 19.2812 18 19.2812C19.2917 19.2812 20.5729 19.4427 21.8437 19.7656C23.1146 20.0885 24.4479 20.5521 25.8437 21.1562C26.4896 21.4479 27.0104 21.875 27.4062 22.4375C27.8021 23 28 23.6771 28 24.4687V27.4062H8ZM9.875 25.5312H26.125V24.4687C26.125 24.1354 26.026 23.8177 25.8281 23.5156C25.6302 23.2135 25.3854 22.9896 25.0937 22.8437C23.7604 22.1979 22.5417 21.7552 21.4375 21.5156C20.3333 21.276 19.1875 21.1562 18 21.1562C16.8125 21.1562 15.6562 21.276 14.5312 21.5156C13.4062 21.7552 12.1875 22.1979 10.875 22.8437C10.5833 22.9896 10.3437 23.2135 10.1562 23.5156C9.96875 23.8177 9.875 24.1354 9.875 24.4687V25.5312ZM18 15.5C18.8125 15.5 19.4844 15.2344 20.0156 14.7031C20.5469 14.1719 20.8125 13.5 20.8125 12.6875C20.8125 11.875 20.5469 11.2031 20.0156 10.6719C19.4844 10.1406 18.8125 9.875 18 9.875C17.1875 9.875 16.5156 10.1406 15.9844 10.6719C15.4531 11.2031 15.1875 11.875 15.1875 12.6875C15.1875 13.5 15.4531 14.1719 15.9844 14.7031C16.5156 15.2344 17.1875 15.5 18 15.5Z" fill="url(#paint0_linear_1083_1661)"/>
<defs>
<linearGradient id="paint0_linear_1083_1661" x1="18.0045" y1="10.5396" x2="21.5118" y2="22.6994" gradientUnits="userSpaceOnUse">
<stop stop-color="white"/>
<stop offset="1" stop-color="#F4F4F4"/>
</linearGradient>
</defs>
</svg>
