<svg width="36" height="36" viewBox="0 0 36 36" fill="none" xmlns="http://www.w3.org/2000/svg">
<path d="M16.8125 7.4375V4H18.6875V7.4375H16.8125ZM16.8125 31.5V28.0625H18.6875V31.5H16.8125ZM28.0625 18.6875V16.8125H31.5V18.6875H28.0625ZM4 18.6875V16.8125H7.4375V18.6875H4ZM25.9375 10.875L24.5938 9.53125L26.6562 7.46875L28 8.8125L25.9375 10.875ZM8.84375 28.0312L7.5 26.6875L9.5625 24.625L10.9062 25.9688L8.84375 28.0312ZM26.6562 28.0312L24.5938 25.9688L25.9375 24.625L28 26.6875L26.6562 28.0312ZM9.5625 10.875L7.5 8.8125L8.84375 7.46875L10.9062 9.53125L9.5625 10.875ZM17.75 24.7812C15.7917 24.7812 14.1302 24.099 12.7656 22.7344C11.401 21.3698 10.7188 19.7083 10.7188 17.75C10.7188 15.7917 11.401 14.1302 12.7656 12.7656C14.1302 11.401 15.7917 10.7188 17.75 10.7188C19.7083 10.7188 21.3698 11.401 22.7344 12.7656C24.099 14.1302 24.7812 15.7917 24.7812 17.75C24.7812 19.7083 24.099 21.3698 22.7344 22.7344C21.3698 24.099 19.7083 24.7812 17.75 24.7812Z" fill="url(#paint0_linear_1083_1667)"/>
<defs>
<linearGradient id="paint0_linear_1083_1667" x1="17.7563" y1="7.59874" x2="22.854" y2="24.7482" gradientUnits="userSpaceOnUse">
<stop stop-color="white"/>
<stop offset="1" stop-color="#F4F4F4"/>
</linearGradient>
</defs>
</svg>
