<svg width="36" height="36" viewBox="0 0 36 36" fill="none" xmlns="http://www.w3.org/2000/svg">
<path d="M17.8313 27.5C16.4771 27.5 15.2042 27.2427 14.0125 26.7281C12.8208 26.2135 11.7781 25.5139 10.8844 24.6292C9.99063 23.7444 9.28646 22.7063 8.77188 21.5146C8.25729 20.3229 8 19.05 8 17.6958C8 16.3417 8.25729 15.0778 8.77188 13.9042C9.28646 12.7306 9.99063 11.7059 10.8844 10.8302C11.7781 9.95451 12.8208 9.26389 14.0125 8.75833C15.2042 8.25278 16.4771 8 17.8313 8C19.2757 8 20.6434 8.31597 21.9344 8.94792C23.2253 9.57986 24.3403 10.4465 25.2792 11.5479V8.67708H26.9042V14.3104H21.2438V12.6854H24.0875C23.2931 11.7646 22.3587 11.0243 21.2844 10.4646C20.2101 9.90486 19.059 9.625 17.8313 9.625C15.5743 9.625 13.6424 10.3969 12.0354 11.9406C10.4285 13.4844 9.625 15.3757 9.625 17.6146C9.625 19.9076 10.4194 21.8576 12.0083 23.4646C13.5972 25.0715 15.5382 25.875 17.8313 25.875C20.0882 25.875 21.9931 25.0806 23.5458 23.4917C25.0986 21.9028 25.875 19.9799 25.875 17.7229H27.5C27.5 20.4313 26.5611 22.7378 24.6833 24.6427C22.8056 26.5476 20.5215 27.5 17.8313 27.5ZM21.1354 22.1646L16.9646 18.0479V12.2521H18.5896V17.3708L22.3 21L21.1354 22.1646Z" fill="url(#paint0_linear_1083_1719)"/>
<defs>
<linearGradient id="paint0_linear_1083_1719" x1="17.7544" y1="10.5518" x2="21.3692" y2="22.7123" gradientUnits="userSpaceOnUse">
<stop stop-color="white"/>
<stop offset="1" stop-color="#F4F4F4"/>
</linearGradient>
</defs>
</svg>
