<svg width="36" height="36" viewBox="0 0 36 36" fill="none" xmlns="http://www.w3.org/2000/svg">
<g clip-path="url(#clip0_1083_1673)">
<path d="M20.026 22.9742C19.7898 22.9742 19.5537 22.8841 19.3728 22.7C19.0111 22.3319 19.0111 21.7384 19.3728 21.3703L23.2479 17.4262C23.6095 17.0581 24.1926 17.0581 24.5543 17.4262C24.916 17.7943 24.916 18.3878 24.5543 18.7559L20.6793 22.7C20.4984 22.8841 20.2622 22.9742 20.026 22.9742Z" fill="#03AEF4"/>
<path d="M31.0774 25.1866H21.2126C20.7033 25.1866 20.29 24.7659 20.29 24.2475C20.29 23.7291 20.7033 23.3084 21.2126 23.3084H30.1178C29.6454 16.9228 24.3901 11.8781 17.9982 11.8781C11.6062 11.8781 6.35455 16.9265 5.87848 23.3084H15.2376C15.7469 23.3084 16.1603 23.7291 16.1603 24.2475C16.1603 24.7659 15.7469 25.1866 15.2376 25.1866H4.92263C4.41334 25.1866 4 24.7659 4 24.2475C4 16.3932 10.2813 10 17.9982 10C25.715 10 31.9963 16.3932 31.9963 24.2475C31.9963 24.7659 31.583 25.1866 31.0737 25.1866H31.0774Z" fill="white"/>
<path d="M17.9995 27.9999C15.9698 27.9999 14.3164 26.3171 14.3164 24.2512C14.3164 22.1852 15.9698 20.5024 17.9995 20.5024C20.0293 20.5024 21.6827 22.1852 21.6827 24.2512C21.6827 26.3171 20.0293 27.9999 17.9995 27.9999ZM17.9995 22.3768C16.9847 22.3768 16.1617 23.2182 16.1617 24.2474C16.1617 25.2766 16.9883 26.1181 17.9995 26.1181C19.0108 26.1181 19.8374 25.2766 19.8374 24.2474C19.8374 23.2182 19.0108 22.3768 17.9995 22.3768Z" fill="white"/>
</g>
<defs>
<clipPath id="clip0_1083_1673">
<rect width="28" height="18" fill="white" transform="translate(4 10)"/>
</clipPath>
</defs>
</svg>
