<svg width="30" height="30" viewBox="0 0 30 30" fill="none" xmlns="http://www.w3.org/2000/svg">
<path d="M15 15.1449C13.4875 15.1449 12.25 14.6715 11.2875 13.7246C10.325 12.7778 9.84375 11.5604 9.84375 10.0725C9.84375 8.58454 10.325 7.36715 11.2875 6.42029C12.25 5.47343 13.4875 5 15 5C16.5125 5 17.75 5.47343 18.7125 6.42029C19.675 7.36715 20.1562 8.58454 20.1562 10.0725C20.1562 11.5604 19.675 12.7778 18.7125 13.7246C17.75 14.6715 16.5125 15.1449 15 15.1449V15.1449ZM4 26V22.8213C4 21.9646 4.21771 21.2319 4.65312 20.6232C5.08854 20.0145 5.65 19.5523 6.3375 19.2367C7.87292 18.5604 9.34531 18.0531 10.7547 17.715C12.1641 17.3768 13.5792 17.2077 15 17.2077C16.4208 17.2077 17.8302 17.3824 19.2281 17.7319C20.626 18.0813 22.0927 18.5829 23.6281 19.2367C24.3385 19.5523 24.9115 20.0145 25.3469 20.6232C25.7823 21.2319 26 21.9646 26 22.8213V26H4ZM6.0625 23.971H23.9375V22.8213C23.9375 22.4605 23.8286 22.1167 23.6109 21.7899C23.3932 21.463 23.124 21.2206 22.8031 21.0628C21.3365 20.3639 19.9958 19.8849 18.7812 19.6256C17.5667 19.3663 16.3062 19.2367 15 19.2367C13.6938 19.2367 12.4219 19.3663 11.1844 19.6256C9.94688 19.8849 8.60625 20.3639 7.1625 21.0628C6.84167 21.2206 6.57812 21.463 6.37187 21.7899C6.16562 22.1167 6.0625 22.4605 6.0625 22.8213V23.971ZM15 13.1159C15.8937 13.1159 16.6328 12.8285 17.2172 12.2536C17.8016 11.6787 18.0938 10.9517 18.0938 10.0725C18.0938 9.19324 17.8016 8.46618 17.2172 7.8913C16.6328 7.31643 15.8937 7.02899 15 7.02899C14.1063 7.02899 13.3672 7.31643 12.7828 7.8913C12.1984 8.46618 11.9062 9.19324 11.9062 10.0725C11.9062 10.9517 12.1984 11.6787 12.7828 12.2536C13.3672 12.8285 14.1063 13.1159 15 13.1159Z" fill="white"/>
</svg>
