<svg width="36" height="36" viewBox="0 0 36 36" fill="none" xmlns="http://www.w3.org/2000/svg">
<path d="M17.9984 11C14.1347 11 11 14.1347 11 17.9984C11 21.8622 14.1347 24.9969 17.9984 24.9969C21.8622 24.9969 24.9969 21.8622 24.9969 17.9984C24.9969 14.1347 21.8648 11 17.9984 11ZM17.9984 24.2395C14.5583 24.2395 11.7599 21.4412 11.7599 18.001C11.7599 14.5608 14.5583 11.7599 17.9984 11.7599C21.4386 11.7599 24.237 14.5583 24.237 17.9984C24.237 21.4386 21.4386 24.237 17.9984 24.237V24.2395Z" fill="url(#paint0_linear_1083_1710)"/>
<path d="M17.9997 12.448C14.9395 12.448 12.4492 14.9383 12.4492 17.9985C12.4492 21.0587 14.9395 23.549 17.9997 23.549C21.0599 23.549 23.5502 21.0587 23.5502 17.9985C23.5502 14.9383 21.0625 12.448 17.9997 12.448ZM19.5914 19.3925C19.5914 20.0934 18.9393 20.6633 18.1383 20.6685V21.5773C18.1383 21.7493 17.9997 21.8879 17.8277 21.8879C17.6557 21.8879 17.5171 21.7493 17.5171 21.5773V20.6633C16.8727 20.6069 16.3669 20.1293 16.3669 19.5491C16.3669 19.3771 16.5055 19.2385 16.6776 19.2385C16.8496 19.2385 16.9882 19.3771 16.9882 19.5491C16.9882 19.8213 17.2911 20.0498 17.648 20.0498H18.1281C18.5928 20.0498 18.9727 19.7545 18.9727 19.3925V18.915C18.9727 18.7096 18.793 18.5145 18.5363 18.4452L16.9548 18.0036C16.4208 17.8547 16.064 17.4234 16.064 16.9356V16.435C16.064 15.7444 16.7084 15.1822 17.5017 15.1822H17.5196V14.2733C17.5196 14.1013 17.6583 13.9627 17.8303 13.9627C18.0023 13.9627 18.1409 14.1013 18.1409 14.2733V15.1822H18.164C18.87 15.1822 19.4451 15.6854 19.4451 16.3015C19.4451 16.4735 19.3065 16.6121 19.1344 16.6121C18.9624 16.6121 18.8238 16.4735 18.8238 16.3015C18.8238 16.0294 18.5209 15.8009 18.164 15.8009H17.5017C17.0524 15.8009 16.6853 16.0859 16.6853 16.4324V16.9331C16.6853 17.141 16.8624 17.331 17.1243 17.4054L18.7057 17.847C19.2371 17.9959 19.594 18.4247 19.594 18.915V19.3925H19.5914Z" fill="url(#paint1_linear_1083_1710)"/>
<defs>
<linearGradient id="paint0_linear_1083_1710" x1="18.0016" y1="12.8317" x2="20.5963" y2="21.5604" gradientUnits="userSpaceOnUse">
<stop stop-color="white"/>
<stop offset="1" stop-color="#F4F4F4"/>
</linearGradient>
<linearGradient id="paint1_linear_1083_1710" x1="18.0022" y1="13.9007" x2="20.0601" y2="20.8235" gradientUnits="userSpaceOnUse">
<stop stop-color="white"/>
<stop offset="1" stop-color="#F4F4F4"/>
</linearGradient>
</defs>
</svg>
