<svg width="187" height="96" viewBox="0 0 187 96" fill="none" xmlns="http://www.w3.org/2000/svg">
<path fill-rule="evenodd" clip-rule="evenodd" d="M84.1876 94.2167H87.77C88.2476 94.2167 89.2029 93.8585 89.2029 92.4255V66.274C89.2029 56.9598 84.1159 38.6896 60.902 38.6896C52.5431 38.4507 35.3237 43.2034 33.3175 64.1246C30.8099 90.2761 54.0954 95.2914 56.2449 95.6496C58.3943 96.0079 75.5898 97.0826 82.7546 84.186V92.4255C82.7546 93.0226 83.0412 94.2167 84.1876 94.2167ZM40.4828 60.1836C43.9923 47.1985 55.4094 44.7568 61.2616 44.7751C67.1138 44.7568 78.5309 47.1985 82.0404 60.1836C86.2489 75.7547 77.5116 90.4198 61.2616 90.2812C45.0116 90.4198 36.2744 75.7547 40.4828 60.1836Z" fill="#03AEF4"/>
<path fill-rule="evenodd" clip-rule="evenodd" d="M153.516 -3.05179e-05H157.098C157.576 -3.05179e-05 158.531 0.358208 158.531 1.79117V68.2416C158.531 77.3797 153.444 95.826 130.23 95.826C121.871 96.0649 104.652 91.3122 102.646 70.391C100.138 44.2396 123.424 39.2242 125.573 38.866C127.722 38.5077 144.918 37.433 152.083 50.3297V1.79117C152.083 1.1941 152.369 -3.05179e-05 153.516 -3.05179e-05ZM150.65 75.048C147.139 88.0403 135.711 90.4775 129.862 90.4565C124.006 90.4714 112.602 88.0243 109.095 75.0479C104.886 59.4759 113.625 44.81 129.876 44.9504C146.123 44.8147 154.858 59.4784 150.65 75.048Z" fill="#03AEF4"/>
<path d="M25.0768 45.4964C24.7902 46.3561 23.5244 46.3322 22.9273 46.2128C20.1808 45.7352 13.828 45.4247 10.3889 48.004C6.94985 50.5833 6.3289 55.2882 6.44831 57.3183V92.784C6.44831 93.9303 5.49301 94.2169 5.01535 94.2169H1.43296C0.286592 94.2169 0 93.5004 0 93.1422V57.3183C0 35.4656 22.9273 39.7645 24.3603 40.1228C25.5067 40.4093 25.7932 41.1975 25.7932 41.5557C25.6738 42.511 25.3634 44.6366 25.0768 45.4964Z" fill="#03AEF4"/>
<path fill-rule="evenodd" clip-rule="evenodd" d="M182.703 40.123H179.12C177.974 40.123 177.687 41.3172 177.688 41.9142V71.6478H184.136V41.9142C184.136 40.4813 183.18 40.123 182.703 40.123Z" fill="#03AEF4"/>
<path fill-rule="evenodd" clip-rule="evenodd" d="M182.703 94.5752H179.12C177.974 94.5752 177.687 93.3811 177.688 92.784V63.0499H184.136V92.784C184.136 94.217 183.18 94.5752 182.703 94.5752Z" fill="#03AEF4"/>
<circle cx="181.267" cy="22.9276" r="5.73183" fill="#03AEF4"/>
</svg>
